<svg class="icon" viewBox="0 0 1024 1024" xmlns="http://www.w3.org/2000/svg" width="200" height="200"><path d="M586.667 576h128q32 0 32 32t-32 32h-128q-32 0-32-32t32-32ZM224 725.333h128q32 0 32 32t-32 32H224q-32 0-32-32t32-32Z" fill="#BED5FF"/><path d="m622.72 389.76-225.6 404.48a32 32 0 0 0 .256 31.637l86.933 150.144A32 32 0 0 0 512 992h448a32 32 0 0 0 27.947-47.573L678.613 389.76a32 32 0 0 0-55.893 0zm27.925 81.28L905.493 928h-375.04l-68.586-118.443L650.645 471.04z" fill="#2674FD"/><path d="m259.99 539.179-224 405.333A32 32 0 0 0 64 992h448a32 32 0 0 0 28.01-47.488l-224-405.333a32 32 0 0 0-56.02 0zM288 620.8 457.75 928H118.23L288 620.8z" fill="#2674FD"/><path d="M85.333 234.667a213.333 213.333 0 1 0 426.667 0 213.333 213.333 0 1 0-426.667 0Z" fill="#39EAC2"/></svg>