<svg class="icon" viewBox="0 0 1024 1024" xmlns="http://www.w3.org/2000/svg" width="200" height="200"><path d="M64 288a160 160 0 0 1 160-160h576a160 160 0 0 1 160 160v448a160 160 0 0 1-160 160H224A160 160 0 0 1 64 736V288z" fill="#929292"/><path d="m140 151.776 813.216 630.528A160.064 160.064 0 0 1 800 896H224A160 160 0 0 1 64 736V288c0-57.568 30.4-108.032 76-136.224z" fill="#444"/><path d="M221.344 128A160.064 160.064 0 0 0 67.136 245.12l423.552 304.096a64 64 0 0 0 74.624 0l395.712-284.128A160.032 160.032 0 0 0 802.656 128H221.344z" fill="#e2e2e2"/></svg>