<svg class="icon" viewBox="0 0 1024 1024" xmlns="http://www.w3.org/2000/svg" width="200" height="200"><path d="M896 938.667H128c-23.467 0-42.667-19.2-42.667-42.667V213.333c0-23.466 19.2-42.666 42.667-42.666h768c23.467 0 42.667 19.2 42.667 42.666V896c0 23.467-19.2 42.667-42.667 42.667z" fill="#BAE7FF"/><path d="M938.667 341.333H85.333v-128c0-23.466 19.2-42.666 42.667-42.666h768c23.467 0 42.667 19.2 42.667 42.666v128z" fill="#185ABD"/><path d="M266.667 256C243.2 256 224 236.8 224 213.333V128c0-23.467 19.2-42.667 42.667-42.667s42.666 19.2 42.666 42.667v85.333c0 23.467-19.2 42.667-42.666 42.667zm480 0C723.2 256 704 236.8 704 213.333V128c0-23.467 19.2-42.667 42.667-42.667s42.666 19.2 42.666 42.667v85.333c0 23.467-19.2 42.667-42.666 42.667z" fill="#50D9FF"/><path d="M213.333 597.333h85.334v85.334h-85.334z" fill="#2B7CD3"/><path d="M213.333 746.667h85.334V832h-85.334z" fill="#41A5EE"/><path d="M384 597.333h85.333v85.334H384z" fill="#2B7CD3"/><path d="M384 746.667h85.333V832H384z" fill="#41A5EE"/><path d="M554.667 597.333H640v85.334h-85.333z" fill="#2B7CD3"/><path d="M554.667 746.667H640V832h-85.333z" fill="#41A5EE"/><path d="M725.333 597.333h85.334v85.334h-85.334z" fill="#2B7CD3"/><path d="M384 448h85.333v85.333H384zm170.667 0H640v85.333h-85.333zm170.666 0h85.334v85.333h-85.334z" fill="#185ABD"/></svg>