<svg class="icon" viewBox="0 0 1024 1024" xmlns="http://www.w3.org/2000/svg" width="200" height="200"><path d="M81.92 174.08A81.92 81.92 0 0 0 0 256v563.2a81.92 81.92 0 0 0 81.92 81.92h274.872a225.28 225.28 0 0 1 136.858 46.336c5.294 4.045 11.694 6.451 18.35 6.451 6.656 0 13.056-2.406 18.35-6.451a225.28 225.28 0 0 1 136.858-46.336H942.08A81.92 81.92 0 0 0 1024 819.2V256a81.92 81.92 0 0 0-81.92-81.92H667.208a225.28 225.28 0 0 0-144.896 52.777L512 235.52l-10.312-8.663a225.28 225.28 0 0 0-144.896-52.777H81.92z" fill="#787878"/><path d="M81.92 102.4A81.92 81.92 0 0 0 0 184.32v563.2a81.92 81.92 0 0 0 81.92 81.92h274.872a225.28 225.28 0 0 1 136.858 46.336c5.294 4.045 11.694 6.451 18.35 6.451 6.656 0 13.056-2.406 18.35-6.451a225.28 225.28 0 0 1 136.858-46.336H942.08a81.92 81.92 0 0 0 81.92-81.92v-563.2a81.92 81.92 0 0 0-81.92-81.92H667.208a225.28 225.28 0 0 0-144.896 52.787L512 163.84l-10.312-8.653A225.28 225.28 0 0 0 356.792 102.4H81.92z" fill="#aeaeae"/><path d="M665.6 286.72A30.72 30.72 0 0 1 696.32 256h204.8a30.72 30.72 0 1 1 0 61.44h-204.8a30.72 30.72 0 0 1-30.72-30.72zm0 184.32a30.72 30.72 0 0 1 30.72-30.72h204.8a30.72 30.72 0 1 1 0 61.44h-204.8a30.72 30.72 0 0 1-30.72-30.72zm0 184.32a30.72 30.72 0 0 1 30.72-30.72h204.8a30.72 30.72 0 1 1 0 61.44h-204.8a30.72 30.72 0 0 1-30.72-30.72zM92.16 256a30.72 30.72 0 0 1 30.72-30.72h204.8a30.72 30.72 0 1 1 0 61.44h-204.8A30.72 30.72 0 0 1 92.16 256zm0 184.32a30.72 30.72 0 0 1 30.72-30.72h204.8a30.72 30.72 0 1 1 0 61.44h-204.8a30.72 30.72 0 0 1-30.72-30.72zm0 184.32a30.72 30.72 0 0 1 30.72-30.72h204.8a30.72 30.72 0 1 1 0 61.44h-204.8a30.72 30.72 0 0 1-30.72-30.72z" fill="#e8e8e8"/></svg>