<svg class="icon" viewBox="0 0 1024 1024" xmlns="http://www.w3.org/2000/svg" width="200" height="200"><path d="M522.189 899.635 652.39 495.667c2.765-8.55-3.584-17.305-12.544-17.357l-257.177-1.484a13.26 13.26 0 0 0-12.749 17.254l126.925 405.453c3.891 12.339 21.401 12.39 25.344.102z" fill="#FC7032"/><path d="m698.214 353.587 64.87-201.318c2.766-8.55-3.634-17.357-12.646-17.357H568.422c-10.24 0-16.64 11.11-11.468 19.968l117.094 201.318c5.837 9.933 20.634 8.295 24.166-2.61z" fill="#FF7E3E"/><path d="m282.01 402.38-65.28-208.588c-3.38-10.803-17.87-12.698-23.91-3.123L62.31 398.13c-5.53 8.807.768 20.275 11.162 20.327l195.789 1.126c9.011.102 15.462-8.602 12.749-17.203z" fill="#FF9552"/><path d="m753.562 422.451 192.307 1.127c10.342.05 16.742-11.162 11.52-20.02L832.666 192.82c-5.837-9.83-20.532-8.192-24.064 2.714l-67.584 209.613c-2.765 8.499 3.584 17.254 12.544 17.305zm-458.087 53.863-212.377-1.23c-11.213-.05-17.46 12.954-10.394 21.658l344.474 423.27c9.216 11.367 27.34 1.588 22.988-12.338L308.07 485.632a13.179 13.179 0 0 0-12.595-9.318zm418.765 11.673L579.226 906.803c-4.506 13.927 13.619 23.808 22.886 12.493l343.091-417.587c7.117-8.653.973-21.658-10.189-21.709l-208.128-1.229c-5.683 0-10.854 3.738-12.646 9.216z" fill="#FC7032"/><path d="m398.234 420.352 225.382 1.331c10.291.051 16.742-11.059 11.571-19.968L523.622 209.971c-5.068-8.755-17.664-8.806-22.886-.153L386.918 400.282c-5.273 8.806 1.076 20.019 11.316 20.07z" fill="#FF9552"/><path d="m349.082 353.434 118.63-198.4c5.274-8.858-1.075-20.07-11.418-20.07H275.558c-8.96 0-15.36 8.703-12.697 17.254l62.105 198.4c3.482 10.905 18.228 12.646 24.116 2.816z" fill="#FFA56A"/><path d="M424.858 858.522 308.122 485.58a13.292 13.292 0 0 0-12.596-9.319L83.15 475.034c-11.213-.052-17.46 12.953-10.394 21.657l301.62 370.637c17.1-2.15 33.894-5.12 50.483-8.806zM639.846 478.31l-257.126-1.484a13.26 13.26 0 0 0-12.749 17.254l109.415 349.44c24.115-7.987 47.564-17.51 70.144-28.57l102.912-319.283c2.713-8.55-3.636-17.305-12.596-17.357zM808.55 195.43l-67.584 209.613c-2.764 8.55 3.584 17.306 12.544 17.357l100.096.563c7.578-36.813 11.572-74.957 11.572-114.022 0-23.143-1.588-45.978-4.301-68.403l-28.314-47.821c-5.734-9.83-20.48-8.141-24.013 2.713zm30.362 284.007-111.923-.666c-5.786-.051-10.957 3.687-12.698 9.216L622.797 771.79c101.069-70.195 178.073-172.544 216.115-292.352z" fill="#FF7E3E"/><path d="M354.253 632.986 308.122 485.58a13.292 13.292 0 0 0-12.596-9.319L83.15 475.034c-11.213-.052-17.46 12.953-10.394 21.657L212.43 668.314a555.93 555.93 0 0 0 141.824-35.328zm15.718-138.957 36.147 115.405a564.378 564.378 0 0 0 167.22-131.584l-190.618-1.127c-9.011.051-15.462 8.755-12.749 17.306zm198.503-359.117c-10.24 0-16.64 11.11-11.47 19.968l105.934 182.118a559.872 559.872 0 0 0 47.564-202.086H568.474z" fill="#FF9552"/><path d="M216.73 193.792c-3.38-10.803-17.87-12.698-23.91-3.123L62.31 398.13c-5.53 8.807.768 20.275 11.162 20.327l172.237.972c12.237-5.734 24.166-11.93 35.891-18.534l-64.87-207.104z" fill="#FFA56A"/></svg>