<svg class="icon" viewBox="0 0 1024 1024" xmlns="http://www.w3.org/2000/svg" width="200" height="200"><path d="M384 192c247.424 0 448 200.576 448 448h-96c0-94.016-36.608-182.432-103.104-248.896C566.432 324.608 478.016 288 384 288v-96Zm0-192c353.472 0 640 286.528 640 640h-96c0-73.472-14.368-144.704-42.72-211.712-27.392-64.768-66.624-122.976-116.608-172.96-49.984-49.984-108.192-89.216-172.96-116.608C528.704 110.368 457.472 96 384 96V0Zm190.4 449.6c43.744 43.776 65.6 101.12 65.568 158.464C576 704.064 576 832 576 832c-256 0-448 192-448 192l-13.984-13.984L90.88 986.88l283.584-283.584c3.104.448 6.304.704 9.536.704 35.36 0 64-28.64 64-64s-28.64-64-64-64-64 28.64-64 64c0 3.232.256 6.432.704 9.536L37.12 933.12 0 896s192-192 192-448c0 0 128 0 224-64 57.312 0 114.656 21.856 158.4 65.6Z"/></svg>